<?xml version="1.0" encoding="utf-8"?>
<!-- Generator: Adobe Illustrator 27.5.0, SVG Export Plug-In . SVG Version: 6.00 Build 0)  -->
<svg version="1.1" xmlns="http://www.w3.org/2000/svg" xmlns:xlink="http://www.w3.org/1999/xlink" x="0px" y="0px"
	 viewBox="0 0 500 500" style="enable-background:new 0 0 500 500;" xml:space="preserve">
<g id="BACKGROUND">
	<g>
		<defs>
			<rect id="SVGID_1_" width="500" height="500"/>
		</defs>
		<clipPath id="SVGID_00000086658591666506100220000008279848796813724815_">
			<use xlink:href="#SVGID_1_"  style="overflow:visible;"/>
		</clipPath>
		<g style="clip-path:url(#SVGID_00000086658591666506100220000008279848796813724815_);">
			<rect style="fill:#22004C;" width="500" height="500"/>
		</g>
		<g style="opacity:0.17;clip-path:url(#SVGID_00000086658591666506100220000008279848796813724815_);">
			<g>
				
					<linearGradient id="SVGID_00000150074492326758398210000007330602252694276759_" gradientUnits="userSpaceOnUse" x1="370.0016" y1="289.8369" x2="140.8754" y2="284.6529" gradientTransform="matrix(0.9905 -0.1375 0.1375 0.9905 -24.4226 35.9678)">
					<stop  offset="0" style="stop-color:#00D9FF"/>
					<stop  offset="1" style="stop-color:#0700EF"/>
				</linearGradient>
				<path style="fill:url(#SVGID_00000150074492326758398210000007330602252694276759_);" d="M390.149,253.912
					c0,0-19.753,45.91-49.234,69.095c-4.83,3.811-9.952,7.034-15.292,9.283c-16.997,7.258-37.305,3.629-57.189-1.775
					c-6.527-1.774-13.041-3.759-19.327-5.607c-17.07-5.041-32.802-9.18-44.556-6.083c-29.362,7.761-55.802-73.522-1.026-81.587
					c0,0,9.921-0.917,25.654-1.593c9.996-0.383,22.302-0.71,35.879-0.626c26.023,0.156,56.696,1.843,84.522,7.15
					C364.249,244.988,378.175,248.791,390.149,253.912z"/>
				
					<linearGradient id="SVGID_00000158708540334947896590000018414229165324220579_" gradientUnits="userSpaceOnUse" x1="347.3196" y1="237.2365" x2="265.6914" y2="309.3517" gradientTransform="matrix(0.9905 -0.1375 0.1375 0.9905 -24.4226 35.9678)">
					<stop  offset="0" style="stop-color:#FFFFFF"/>
					<stop  offset="1" style="stop-color:#FFFFFF;stop-opacity:0"/>
				</linearGradient>
				<path style="opacity:0.59;fill:url(#SVGID_00000158708540334947896590000018414229165324220579_);" d="M390.149,253.912
					c0,0-26.774,62.293-64.526,78.378c-16.997,7.258-37.305,3.629-57.189-1.775c60.203-13.005,83.589-46.021,70.515-63.592
					c-9.002-12.065-47.234-24.468-73.891-31.905C304.828,235.276,355.428,239.053,390.149,253.912z"/>
				
					<linearGradient id="SVGID_00000067928683421361211550000014005929310436613274_" gradientUnits="userSpaceOnUse" x1="370.4916" y1="262.6549" x2="320.2922" y2="307.0041" gradientTransform="matrix(0.9905 -0.1375 0.1375 0.9905 -24.4226 35.9678)">
					<stop  offset="0" style="stop-color:#FFFFFF"/>
					<stop  offset="1" style="stop-color:#FFFFFF;stop-opacity:0"/>
				</linearGradient>
				<path style="fill:url(#SVGID_00000067928683421361211550000014005929310436613274_);" d="M390.149,253.912
					c0,0-19.753,45.91-49.234,69.095c33.001-43.98,22.323-68.416,8.666-80.839C364.249,244.988,378.175,248.791,390.149,253.912z"/>
				
					<linearGradient id="SVGID_00000078028473200432476200000012354933604315588750_" gradientUnits="userSpaceOnUse" x1="197.493" y1="211.9951" x2="194.3825" y2="396.5452" gradientTransform="matrix(0.9905 -0.1375 0.1375 0.9905 -24.4226 35.9678)">
					<stop  offset="0" style="stop-color:#000000"/>
					<stop  offset="1" style="stop-color:#000000;stop-opacity:0"/>
				</linearGradient>
				<path style="opacity:0.36;fill:url(#SVGID_00000078028473200432476200000012354933604315588750_);" d="M249.107,324.908
					c-17.07-5.041-32.802-9.18-44.556-6.083c-29.362,7.761-55.802-73.522-1.026-81.587c0,0,9.921-0.917,25.654-1.593
					C232.57,258.872,238.98,294.785,249.107,324.908z"/>
			</g>
			
				<linearGradient id="SVGID_00000134943120833440518130000006254037697677753777_" gradientUnits="userSpaceOnUse" x1="201.8052" y1="-8.675" x2="246.5811" y2="-2.4214">
				<stop  offset="0" style="stop-color:#E000A4"/>
				<stop  offset="1" style="stop-color:#FFC000"/>
			</linearGradient>
			<path style="fill:url(#SVGID_00000134943120833440518130000006254037697677753777_);" d="M200.789-1.469
				c-0.166,0.042-0.332,0.124-0.497,0.166c5.432-2.571,11.322-4.354,17.667-5.184c0,0,8.875-2.405,25.298-3.982
				C231.188-9.1,216.259-6.487,200.789-1.469z"/>
			
				<linearGradient id="SVGID_00000108994369386577102620000000722874483396860081_" gradientUnits="userSpaceOnUse" x1="176.044" y1="93.7286" x2="223.9979" y2="100.4261">
				<stop  offset="0" style="stop-color:#E000A4"/>
				<stop  offset="1" style="stop-color:#FFC000"/>
			</linearGradient>
			<path style="fill:url(#SVGID_00000108994369386577102620000000722874483396860081_);" d="M173.003,111.79
				c19.243-17.045,37.781-25.92,48.854-30.15c-8.751,3.525-17.377,8.916-25.713,16.672
				C186.979,106.814,179.265,110.961,173.003,111.79z"/>
			
				<linearGradient id="SVGID_00000151502959941747806880000000974048143628690585_" gradientUnits="userSpaceOnUse" x1="228.1284" y1="78.585" x2="232.6761" y2="79.2202">
				<stop  offset="0" style="stop-color:#E000A4"/>
				<stop  offset="1" style="stop-color:#FFC000"/>
			</linearGradient>
			<path style="fill:url(#SVGID_00000151502959941747806880000000974048143628690585_);" d="M232.267,78.24l0.083,0.083
				c-0.208,0-0.456,0.083-0.663,0.124c-1.244,0.332-2.488,0.663-3.732,1.037c1.825-0.581,3.11-0.954,3.774-1.12
				C232.101,78.281,232.267,78.24,232.267,78.24z"/>
			
				<linearGradient id="SVGID_00000111890482972072605350000013115697649613819805_" gradientUnits="userSpaceOnUse" x1="96.5119" y1="724.4647" x2="225.9088" y2="61.5245">
				<stop  offset="0" style="stop-color:#2A41FF"/>
				<stop  offset="1" style="stop-color:#DF11FF"/>
			</linearGradient>
			<path style="fill:url(#SVGID_00000111890482972072605350000013115697649613819805_);" d="M231.727,78.364
				c0,0,0,0.042-0.041,0.083c-3.359,12.939-6.096,26.252-8.295,39.896c-24.883,153.529,18.04,344.507-12.4,447.689
				c-1.866,6.304-4.106,12.027-6.635,17.211c-8.626,17.708-20.777,29.072-33.426,36.329c-28.657,16.465-60.01,11.861-60.01,11.861
				c41.887-133.125,16.838-238.505-0.539-337.54c-2.198-12.566-4.272-25.049-6.096-37.449
				c8.958-74.774,39.647-118.983,68.719-144.654c19.243-17.045,37.781-25.92,48.854-30.15c0.663-0.249,1.286-0.498,1.908-0.747
				c1.617-0.581,2.986-1.037,4.188-1.41C229.778,78.903,231.064,78.53,231.727,78.364z"/>
			
				<linearGradient id="SVGID_00000153670707718689550790000007735711649414549951_" gradientUnits="userSpaceOnUse" x1="179.0532" y1="743.7305" x2="213.6128" y2="29.0306">
				<stop  offset="0" style="stop-color:#FFFFFF"/>
				<stop  offset="1" style="stop-color:#FFFFFF;stop-opacity:0"/>
			</linearGradient>
			<path style="opacity:0.37;fill:url(#SVGID_00000153670707718689550790000007735711649414549951_);" d="M210.992,566.032
				c-8.211,27.911-23.722,44.168-40.062,53.54c67.267-238.09-62.498-393.527-2.074-576.957c5.267-15.967,12.856-29.362,21.98-40.559
				c40.684-15.759,80.663-13.852,80.663-13.852C164.212,142.77,251.012,430.336,210.992,566.032z"/>
			
				<linearGradient id="SVGID_00000159469570097896443690000001367975760588473751_" gradientUnits="userSpaceOnUse" x1="191.6646" y1="699.0137" x2="224.163" y2="26.9389">
				<stop  offset="0" style="stop-color:#FFFFFF"/>
				<stop  offset="1" style="stop-color:#FFFFFF;stop-opacity:0"/>
			</linearGradient>
			<path style="opacity:0.37;fill:url(#SVGID_00000159469570097896443690000001367975760588473751_);" d="M210.992,566.032
				c-1.866,6.304-4.106,12.027-6.635,17.211c44.209-225.981-72.659-381.417-12.898-562.857c2.572-7.838,5.723-15.138,9.331-21.856
				c37.035-11.944,70.71-10.327,70.71-10.327C164.212,142.77,251.012,430.336,210.992,566.032z"/>
			
				<linearGradient id="SVGID_00000074432628426319532750000015939421943091305095_" gradientUnits="userSpaceOnUse" x1="263.1021" y1="287.4436" x2="321.1016" y2="-9.7058">
				<stop  offset="0" style="stop-color:#E000A4"/>
				<stop  offset="1" style="stop-color:#FFC000"/>
			</linearGradient>
			<path style="fill:url(#SVGID_00000074432628426319532750000015939421943091305095_);" d="M502,50.785
				c0,0-8.875,12.442-25.505,26.044c-1.037,0.871-2.115,1.701-3.194,2.572c-0.912,0.705-1.866,1.451-2.862,2.198
				c-16.796,12.483-39.896,24.966-68.304,28.657c-11.529,1.493-23.598,0.083-35.998-2.903
				c-30.648-7.382-63.369-24.303-95.386-29.652c-9.456-1.576-18.87-2.157-28.118-1.161c-3.442,0.373-6.884,0.912-10.285,1.784
				l-0.083-0.083c0,0-0.166,0.042-0.54,0.124c-0.663,0.166-1.949,0.539-3.774,1.12c-1.203,0.374-2.571,0.83-4.188,1.41
				c-0.622,0.249-1.245,0.456-1.908,0.747c-11.073,4.23-29.611,13.105-48.854,30.15c-29.072,25.671-59.761,69.88-68.719,144.654
				c-3.152-21.4-5.391-42.633-6.055-63.908c-1.244-37.035,2.406-74.235,15.096-112.762c14.059-42.634,45.992-65.484,77.511-77.718
				c3.152-1.203,6.345-2.322,9.456-3.359c0.166-0.042,0.332-0.124,0.497-0.166c15.469-5.018,30.399-7.631,42.467-9
				c0.705-0.041,1.41-0.124,2.115-0.207c7.216-0.622,15.718-1.12,25.505-1.161h0.166c8.875-0.042,18.704,0.248,29.528,1.078
				c10.534,0.788,22.022,2.074,34.297,4.023c4.189,0.664,8.46,1.41,12.856,2.24c3.608,0.663,7.299,1.451,11.073,2.24
				C399.772,6.493,448.169,22.543,502,50.785z"/>
			
				<linearGradient id="SVGID_00000153687975499155036570000005688901514411243943_" gradientUnits="userSpaceOnUse" x1="457.8171" y1="1.8802" x2="414.9231" y2="39.7753">
				<stop  offset="0" style="stop-color:#FFFFFF"/>
				<stop  offset="1" style="stop-color:#FFFFFF;stop-opacity:0"/>
			</linearGradient>
			<path style="opacity:0.59;fill:url(#SVGID_00000153687975499155036570000005688901514411243943_);" d="M502,50.785
				c0,0-8.875,12.442-25.505,26.044c6.013-7.714,9.414-15.013,6.345-19.823c-6.304-9.912-76.059-39.689-124.042-59.264
				C399.772,6.493,448.169,22.543,502,50.785z"/>
			
				<linearGradient id="SVGID_00000142166794742185462810000014113764932448900796_" gradientUnits="userSpaceOnUse" x1="121.8059" y1="484.6634" x2="177.1019" y2="104.5037">
				<stop  offset="0" style="stop-color:#000000"/>
				<stop  offset="1" style="stop-color:#000000;stop-opacity:0"/>
			</linearGradient>
			<path style="fill:url(#SVGID_00000142166794742185462810000014113764932448900796_);" d="M231.727,78.364
				c0,0,0,0.042-0.041,0.083c-3.359,12.939-6.096,26.252-8.295,39.896c-33.011,24.137-86.842,76.806-113.011,175.55
				c-2.198-12.566-4.272-25.049-6.096-37.449c8.958-74.774,39.647-118.983,68.719-144.654c19.243-17.045,37.781-25.92,48.854-30.15
				c0.663-0.249,1.286-0.498,1.908-0.747c1.617-0.581,2.986-1.037,4.188-1.41C229.778,78.903,231.064,78.53,231.727,78.364z"/>
			
				<linearGradient id="SVGID_00000083050018181112845360000010631709123055661973_" gradientUnits="userSpaceOnUse" x1="454.3248" y1="-1.0454" x2="371.5848" y2="72.052">
				<stop  offset="0" style="stop-color:#FFFFFF"/>
				<stop  offset="1" style="stop-color:#FFFFFF;stop-opacity:0"/>
			</linearGradient>
			<path style="opacity:0.46;fill:url(#SVGID_00000083050018181112845360000010631709123055661973_);" d="M502,50.785
				c0,0-8.875,12.442-25.505,26.044c-1.037,0.871-2.115,1.701-3.194,2.572c-17.003,13.229-41.098,26.956-71.166,30.855
				c-11.529,1.493-23.598,0.083-35.998-2.903c39.73-6.76,76.847-21.814,71.083-42.052c-5.557-19.368-51.301-48.439-89.496-69.797
				c3.608,0.663,7.299,1.451,11.073,2.24C399.772,6.493,448.169,22.543,502,50.785z"/>
			
				<linearGradient id="SVGID_00000120552995388196718100000004047167387582164628_" gradientUnits="userSpaceOnUse" x1="446.8713" y1="196.1664" x2="143.0894" y2="142.2531">
				<stop  offset="0" style="stop-color:#FFFFFF"/>
				<stop  offset="1" style="stop-color:#FFFFFF;stop-opacity:0"/>
			</linearGradient>
			<path style="opacity:0.46;fill:url(#SVGID_00000120552995388196718100000004047167387582164628_);" d="M470.44,81.599
				c-16.796,12.483-39.896,24.966-68.304,28.657c-11.529,1.493-23.598,0.083-35.998-2.903
				c-30.648-7.382-63.369-24.303-95.386-29.652c-9.456-1.576-18.87-2.157-28.118-1.161c-3.442,0.373-6.884,0.912-10.285,1.784
				l-0.083-0.083c0,0-0.166,0.042-0.54,0.124c-0.663,0.166-1.949,0.539-3.774,1.12c-1.203,0.374-2.571,0.83-4.188,1.41
				c-0.622,0.249-1.245,0.456-1.908,0.747c-11.073,4.23-29.611,13.105-48.854,30.15c-29.072,25.671-59.761,69.88-68.719,144.654
				c-3.152-21.4-5.391-42.633-6.055-63.908c13.064-48.108,48.564-132.669,138.184-145.898
				C336.9,31.833,383.722,111.169,470.44,81.599z"/>
		</g>
	</g>
</g>
<g id="OBJECTS">
	<g>
		
			<text transform="matrix(1 0 0 1 107.5 332.9151)" style="fill:#FFFFFF; font-family:'Poppins-ExtraBold'; font-size:39.2295px; letter-spacing:2;">BRANDNAME</text>
		
			<text transform="matrix(1 0 0 1 154.2271 360.3672)" style="fill:#FFFFFF; font-family:'Poppins-Medium'; font-size:13.5932px; letter-spacing:3;">TAGLINE GOES HERE</text>
	</g>
</g>
<g id="TEXTS">
	<g>
		<g>
			
				<linearGradient id="SVGID_00000054261462674391715690000012136923011656902573_" gradientUnits="userSpaceOnUse" x1="281.747" y1="189.603" x2="220.9997" y2="188.2286" gradientTransform="matrix(0.9905 -0.1375 0.1375 0.9905 -24.4226 35.9678)">
				<stop  offset="0" style="stop-color:#00D9FF"/>
				<stop  offset="1" style="stop-color:#0700EF"/>
			</linearGradient>
			<path style="fill:url(#SVGID_00000054261462674391715690000012136923011656902573_);" d="M282.901,180.187
				c0,0-5.237,12.172-13.053,18.319c-1.281,1.01-2.638,1.865-4.054,2.461c-4.506,1.924-9.89,0.962-15.162-0.47
				c-1.73-0.47-3.457-0.997-5.124-1.487c-4.526-1.337-8.697-2.434-11.813-1.613c-7.785,2.058-14.795-19.493-0.272-21.631
				c0,0,2.63-0.243,6.801-0.422c2.65-0.102,5.913-0.188,9.513-0.166c6.899,0.041,15.032,0.489,22.409,1.896
				C276.034,177.821,279.726,178.829,282.901,180.187z"/>
			
				<linearGradient id="SVGID_00000047060534954186466040000011306924940766389128_" gradientUnits="userSpaceOnUse" x1="275.7334" y1="175.6573" x2="254.0917" y2="194.7769" gradientTransform="matrix(0.9905 -0.1375 0.1375 0.9905 -24.4226 35.9678)">
				<stop  offset="0" style="stop-color:#FFFFFF"/>
				<stop  offset="1" style="stop-color:#FFFFFF;stop-opacity:0"/>
			</linearGradient>
			<path style="opacity:0.59;fill:url(#SVGID_00000047060534954186466040000011306924940766389128_);" d="M282.901,180.187
				c0,0-7.098,16.515-17.108,20.78c-4.506,1.924-9.89,0.962-15.162-0.47c15.961-3.448,22.162-12.201,18.695-16.86
				c-2.387-3.199-12.523-6.487-19.59-8.459C260.28,175.246,273.695,176.248,282.901,180.187z"/>
			
				<linearGradient id="SVGID_00000152248939412355177900000003923327535787677321_" gradientUnits="userSpaceOnUse" x1="281.8769" y1="182.3963" x2="268.5677" y2="194.1545" gradientTransform="matrix(0.9905 -0.1375 0.1375 0.9905 -24.4226 35.9678)">
				<stop  offset="0" style="stop-color:#FFFFFF"/>
				<stop  offset="1" style="stop-color:#FFFFFF;stop-opacity:0"/>
			</linearGradient>
			<path style="fill:url(#SVGID_00000152248939412355177900000003923327535787677321_);" d="M282.901,180.187
				c0,0-5.237,12.172-13.053,18.319c8.749-11.66,5.919-18.139,2.298-21.432C276.034,177.821,279.726,178.829,282.901,180.187z"/>
			
				<linearGradient id="SVGID_00000064319047262515276090000011414792803783819669_" gradientUnits="userSpaceOnUse" x1="236.0105" y1="168.9652" x2="235.1858" y2="217.8941" gradientTransform="matrix(0.9905 -0.1375 0.1375 0.9905 -24.4226 35.9678)">
				<stop  offset="0" style="stop-color:#000000"/>
				<stop  offset="1" style="stop-color:#000000;stop-opacity:0"/>
			</linearGradient>
			<path style="opacity:0.36;fill:url(#SVGID_00000064319047262515276090000011414792803783819669_);" d="M245.507,199.01
				c-4.526-1.337-8.697-2.434-11.813-1.613c-7.785,2.058-14.795-19.493-0.272-21.631c0,0,2.63-0.243,6.801-0.422
				C241.123,181.502,242.822,191.024,245.507,199.01z"/>
		</g>
		
			<linearGradient id="SVGID_00000015318068178461864770000001776351851989738652_" gradientUnits="userSpaceOnUse" x1="232.966" y1="110.5686" x2="244.8373" y2="112.2266">
			<stop  offset="0" style="stop-color:#E000A4"/>
			<stop  offset="1" style="stop-color:#FFC000"/>
		</linearGradient>
		<path style="fill:url(#SVGID_00000015318068178461864770000001776351851989738652_);" d="M232.697,112.479
			c-0.044,0.011-0.088,0.033-0.132,0.044c1.44-0.682,3.002-1.155,4.684-1.374c0,0,2.353-0.638,6.707-1.056
			C240.756,110.456,236.798,111.149,232.697,112.479z"/>
		
			<linearGradient id="SVGID_00000084515797185000391900000000134982630390040465_" gradientUnits="userSpaceOnUse" x1="226.1361" y1="137.7183" x2="238.8499" y2="139.494">
			<stop  offset="0" style="stop-color:#E000A4"/>
			<stop  offset="1" style="stop-color:#FFC000"/>
		</linearGradient>
		<path style="fill:url(#SVGID_00000084515797185000391900000000134982630390040465_);" d="M225.33,142.507
			c5.102-4.519,10.017-6.872,12.952-7.993c-2.32,0.935-4.607,2.364-6.817,4.42C229.035,141.188,226.99,142.287,225.33,142.507z"/>
		
			<linearGradient id="SVGID_00000038403320354499815090000000875528586657284740_" gradientUnits="userSpaceOnUse" x1="239.945" y1="133.7034" x2="241.1507" y2="133.8718">
			<stop  offset="0" style="stop-color:#E000A4"/>
			<stop  offset="1" style="stop-color:#FFC000"/>
		</linearGradient>
		<path style="fill:url(#SVGID_00000038403320354499815090000000875528586657284740_);" d="M241.042,133.612l0.022,0.022
			c-0.055,0-0.121,0.022-0.176,0.033c-0.33,0.088-0.66,0.176-0.99,0.275c0.484-0.154,0.825-0.253,1.001-0.297
			C240.998,133.623,241.042,133.612,241.042,133.612z"/>
		
			<linearGradient id="SVGID_00000051380889992849113980000013581202744888158889_" gradientUnits="userSpaceOnUse" x1="205.0501" y1="304.9427" x2="239.3566" y2="129.1802">
			<stop  offset="0" style="stop-color:#2A41FF"/>
			<stop  offset="1" style="stop-color:#DF11FF"/>
		</linearGradient>
		<path style="fill:url(#SVGID_00000051380889992849113980000013581202744888158889_);" d="M240.899,133.645
			c0,0,0,0.011-0.011,0.022c-0.891,3.43-1.616,6.96-2.199,10.577c-6.597,40.705,4.783,91.338-3.287,118.694
			c-0.495,1.671-1.089,3.189-1.759,4.563c-2.287,4.695-5.509,7.708-8.862,9.632c-7.598,4.365-15.91,3.145-15.91,3.145
			c11.105-35.295,4.464-63.234-0.143-89.491c-0.583-3.332-1.133-6.641-1.616-9.929c2.375-19.824,10.511-31.546,18.219-38.352
			c5.102-4.519,10.017-6.872,12.952-7.993c0.176-0.066,0.341-0.132,0.506-0.198c0.429-0.154,0.792-0.275,1.111-0.374
			C240.382,133.788,240.723,133.689,240.899,133.645z"/>
		
			<linearGradient id="SVGID_00000183962987242664719070000010950707821219525820_" gradientUnits="userSpaceOnUse" x1="226.9339" y1="310.0505" x2="236.0965" y2="120.5653">
			<stop  offset="0" style="stop-color:#FFFFFF"/>
			<stop  offset="1" style="stop-color:#FFFFFF;stop-opacity:0"/>
		</linearGradient>
		<path style="opacity:0.37;fill:url(#SVGID_00000183962987242664719070000010950707821219525820_);" d="M235.402,262.938
			c-2.177,7.4-6.289,11.71-10.621,14.195c17.834-63.124-16.57-104.334-0.55-152.966c1.396-4.233,3.409-7.785,5.827-10.753
			c10.786-4.178,21.386-3.673,21.386-3.673C222.999,150.721,246.012,226.962,235.402,262.938z"/>
		
			<linearGradient id="SVGID_00000047031831976985612620000018198149874195497361_" gradientUnits="userSpaceOnUse" x1="230.2775" y1="298.195" x2="238.8937" y2="120.0107">
			<stop  offset="0" style="stop-color:#FFFFFF"/>
			<stop  offset="1" style="stop-color:#FFFFFF;stop-opacity:0"/>
		</linearGradient>
		<path style="opacity:0.37;fill:url(#SVGID_00000047031831976985612620000018198149874195497361_);" d="M235.402,262.938
			c-0.495,1.671-1.089,3.189-1.759,4.563c11.721-59.913-19.264-101.124-3.42-149.228c0.682-2.078,1.518-4.013,2.474-5.795
			c9.819-3.167,18.747-2.738,18.747-2.738C222.999,150.721,246.012,226.962,235.402,262.938z"/>
		
			<linearGradient id="SVGID_00000030469289722527274230000003316840614697398451_" gradientUnits="userSpaceOnUse" x1="249.2174" y1="189.0772" x2="264.5945" y2="110.2953">
			<stop  offset="0" style="stop-color:#E000A4"/>
			<stop  offset="1" style="stop-color:#FFC000"/>
		</linearGradient>
		<path style="fill:url(#SVGID_00000030469289722527274230000003316840614697398451_);" d="M312.555,126.333
			c0,0-2.353,3.299-6.762,6.905c-0.275,0.231-0.561,0.451-0.847,0.682c-0.242,0.187-0.495,0.385-0.759,0.583
			c-4.453,3.31-10.577,6.619-18.109,7.598c-3.057,0.396-6.256,0.022-9.544-0.77c-8.125-1.957-16.801-6.443-25.289-7.862
			c-2.507-0.418-5.003-0.572-7.455-0.308c-0.913,0.099-1.825,0.242-2.727,0.473l-0.022-0.022c0,0-0.044,0.011-0.143,0.033
			c-0.176,0.044-0.517,0.143-1.001,0.297c-0.319,0.099-0.682,0.22-1.111,0.374c-0.165,0.066-0.33,0.121-0.506,0.198
			c-2.936,1.121-7.851,3.475-12.952,7.993c-7.708,6.806-15.844,18.527-18.219,38.352c-0.836-5.674-1.429-11.303-1.605-16.944
			c-0.33-9.819,0.638-19.682,4.002-29.896c3.727-11.303,12.194-17.362,20.55-20.605c0.836-0.319,1.682-0.616,2.507-0.891
			c0.044-0.011,0.088-0.033,0.132-0.044c4.101-1.33,8.059-2.023,11.259-2.386c0.187-0.011,0.374-0.033,0.561-0.055
			c1.913-0.165,4.167-0.297,6.762-0.308h0.044c2.353-0.011,4.959,0.066,7.829,0.286c2.793,0.209,5.839,0.55,9.093,1.066
			c1.111,0.176,2.243,0.374,3.409,0.594c0.957,0.176,1.935,0.385,2.936,0.594C285.452,114.59,298.283,118.845,312.555,126.333z"/>
		
			<linearGradient id="SVGID_00000093871954152663369670000003609323111535173768_" gradientUnits="userSpaceOnUse" x1="300.8414" y1="113.367" x2="289.4691" y2="123.414">
			<stop  offset="0" style="stop-color:#FFFFFF"/>
			<stop  offset="1" style="stop-color:#FFFFFF;stop-opacity:0"/>
		</linearGradient>
		<path style="opacity:0.59;fill:url(#SVGID_00000093871954152663369670000003609323111535173768_);" d="M312.555,126.333
			c0,0-2.353,3.299-6.762,6.905c1.594-2.045,2.496-3.98,1.682-5.256c-1.671-2.628-20.165-10.522-32.887-15.712
			C285.452,114.59,298.283,118.845,312.555,126.333z"/>
		
			<linearGradient id="SVGID_00000047759908724759670740000009902547801507051927_" gradientUnits="userSpaceOnUse" x1="211.7562" y1="241.3653" x2="226.4166" y2="140.5751">
			<stop  offset="0" style="stop-color:#000000"/>
			<stop  offset="1" style="stop-color:#000000;stop-opacity:0"/>
		</linearGradient>
		<path style="fill:url(#SVGID_00000047759908724759670740000009902547801507051927_);" d="M240.899,133.645
			c0,0,0,0.011-0.011,0.022c-0.891,3.43-1.616,6.96-2.199,10.577c-8.752,6.399-23.024,20.363-29.962,46.543
			c-0.583-3.332-1.133-6.641-1.616-9.929c2.375-19.824,10.511-31.546,18.219-38.352c5.102-4.519,10.017-6.872,12.952-7.993
			c0.176-0.066,0.341-0.132,0.506-0.198c0.429-0.154,0.792-0.275,1.111-0.374C240.382,133.788,240.723,133.689,240.899,133.645z"/>
		
			<linearGradient id="SVGID_00000172408292434147209680000002653562067163194029_" gradientUnits="userSpaceOnUse" x1="299.9155" y1="112.5913" x2="277.9789" y2="131.9714">
			<stop  offset="0" style="stop-color:#FFFFFF"/>
			<stop  offset="1" style="stop-color:#FFFFFF;stop-opacity:0"/>
		</linearGradient>
		<path style="opacity:0.46;fill:url(#SVGID_00000172408292434147209680000002653562067163194029_);" d="M312.555,126.333
			c0,0-2.353,3.299-6.762,6.905c-0.275,0.231-0.561,0.451-0.847,0.682c-4.508,3.507-10.896,7.147-18.868,8.18
			c-3.057,0.396-6.256,0.022-9.544-0.77c10.533-1.792,20.374-5.783,18.846-11.149c-1.473-5.135-13.601-12.842-23.728-18.505
			c0.957,0.176,1.935,0.385,2.936,0.594C285.452,114.59,298.283,118.845,312.555,126.333z"/>
		
			<linearGradient id="SVGID_00000127762205510299433600000011725034274073726861_" gradientUnits="userSpaceOnUse" x1="297.9394" y1="164.8773" x2="217.399" y2="150.5835">
			<stop  offset="0" style="stop-color:#FFFFFF"/>
			<stop  offset="1" style="stop-color:#FFFFFF;stop-opacity:0"/>
		</linearGradient>
		<path style="opacity:0.46;fill:url(#SVGID_00000127762205510299433600000011725034274073726861_);" d="M304.188,134.503
			c-4.453,3.31-10.577,6.619-18.109,7.598c-3.057,0.396-6.256,0.022-9.544-0.77c-8.125-1.957-16.801-6.443-25.289-7.862
			c-2.507-0.418-5.003-0.572-7.455-0.308c-0.913,0.099-1.825,0.242-2.727,0.473l-0.022-0.022c0,0-0.044,0.011-0.143,0.033
			c-0.176,0.044-0.517,0.143-1.001,0.297c-0.319,0.099-0.682,0.22-1.111,0.374c-0.165,0.066-0.33,0.121-0.506,0.198
			c-2.936,1.121-7.851,3.475-12.952,7.993c-7.708,6.806-15.844,18.527-18.219,38.352c-0.836-5.674-1.429-11.303-1.605-16.944
			c3.464-12.755,12.876-35.174,36.636-38.681C268.783,121.308,281.197,142.342,304.188,134.503z"/>
	</g>
</g>
</svg>
